<svg width="300" height="300" viewBox="0 0 300 300" xmlns="http://www.w3.org/2000/svg" fill="none">
  <rect width="300" height="300" rx="40" fill="#ffffff"/>
  <circle cx="150" cy="85" r="30" fill="#6366F1"/>
  <path d="M130 135h40a5 5 0 015 5v10a5 5 0 01-5 5h-40a5 5 0 01-5-5v-10a5 5 0 015-5z" fill="#4F46E5"/>
  <path d="M120 165h60a5 5 0 015 5v10a5 5 0 01-5 5h-60a5 5 0 01-5-5v-10a5 5 0 015-5z" fill="#4338CA"/>
  <path d="M110 195h80a5 5 0 015 5v10a5 5 0 01-5 5h-80a5 5 0 01-5-5v-10a5 5 0 015-5z" fill="#3730A3"/>
  <path d="M130 235h40a5 5 0 015 5v10a5 5 0 01-5 5h-40a5 5 0 01-5-5v-10a5 5 0 015-5z" fill="#312E81"/>
  <text x="150" y="290" text-anchor="middle" font-family="Arial" font-size="20" fill="#6366F1" font-weight="bold">Quiz App</text>
</svg>
